<?xml version="1.0" encoding="UTF-8"?>
<svg id="Ebene_1" xmlns="http://www.w3.org/2000/svg" version="1.1" viewBox="0 0 647 296.2">
  <!-- Generator: Adobe Illustrator 29.5.1, SVG Export Plug-In . SVG Version: 2.1.0 Build 141)  -->
  <defs>
    <style>
      .st0 {
        fill: #1a1f26;
      }
    </style>
  </defs>
  <path class="st0" d="M554.1,231.4h18.5v-28.1h-14.7c-13.7,0-20.2-6.5-20.2-17.8v-54.4h7c9.6,0,19.2-1.2,29.8-4.1l-4.6-27.4c-9.4,2.4-17.6,3.4-25,3.4h-7.2v-30.3h-30.3v30.3h-25.7v28.1h25.7v54.1c0,30.3,19.5,46.2,46.7,46.2M357.1,231.4h30.3v-67.4c0-15.9,8.2-33.7,30.1-33.7s24.3,12,24.3,24.1v77h30.3v-83.2c0-28.4-14.9-47.4-45.9-47.4s-31,6.7-38.7,18v-15.9h-30.3v128.5ZM300.6,231.4h30.3V103h-30.3v128.5ZM244.2,231.4h30.3V62.2h-30.3v169.3ZM160,231.4h30.3v-100.3h2.2c10.3,0,22.4-1.2,33.4-4.1l-4.1-27.7c-9.9,2.4-19.2,3.6-27.9,3.6h-3.6v-5.1c0-11.5,6.5-18,20.2-18h14.7v-28.1h-18.5c-27.2,0-46.7,15.9-46.7,46.4v4.8h-25.7v28.1h25.7v100.3Z"/>
  <rect class="st0" x="65.3" y="201.1" width="68.9" height="30.3"/>
</svg>